<svg width="1024" height="1024" viewBox="0 0 1024 1024" fill="none" xmlns="http://www.w3.org/2000/svg">
  <defs>
    <radialGradient id="moonSurface" cx="0" cy="0" r="1" gradientUnits="userSpaceOnUse" gradientTransform="translate(360 300) rotate(40) scale(760 760)">
      <stop offset="0" stop-color="#F4F4F4"/>
      <stop offset="0.55" stop-color="#C5C6C8"/>
      <stop offset="1" stop-color="#8F9296"/>
    </radialGradient>
    <filter id="outerGlow" x="-30%" y="-30%" width="160%" height="160%">
      <feGaussianBlur stdDeviation="18"/>
    </filter>
    <filter id="cloudBlur" x="-30%" y="-30%" width="160%" height="160%">
      <feGaussianBlur stdDeviation="8"/>
    </filter>
  </defs>

  <g filter="url(#outerGlow)" opacity="0.38">
    <circle cx="512" cy="512" r="454" fill="#E5EBFF"/>
  </g>

  <circle cx="512" cy="512" r="452" fill="url(#moonSurface)"/>
  <circle cx="512" cy="512" r="452" stroke="#ECECEC" stroke-width="12"/>

  <g opacity="0.56" fill="#7F8286">
    <path d="M186 362c20-70 96-132 182-142 74-8 130 26 188 28 68 2 138-34 206 4 56 30 92 84 98 144-52-40-112-64-190-54-84 10-136 42-212 34-66-8-112-38-176-34-44 4-74 16-96 20z"/>
    <path d="M164 502c48-52 120-86 208-90 80-4 134 22 208 16 86-6 138-34 226-2 32 12 56 26 76 44-42-8-82-8-130 4-70 18-112 56-194 64-90 8-150-26-232-20-70 6-122 40-162 64z"/>
    <path d="M226 668c42-40 104-70 164-82 58-10 110-4 164-6 74-4 128-28 196-16 34 6 74 20 110 44-40 0-82 10-120 26-52 22-88 56-154 70-84 18-166-2-238-8-52-4-88 0-122 12z"/>
  </g>

  <g fill="#A7A9AC" opacity="0.58">
    <ellipse cx="290" cy="338" rx="66" ry="54"/>
    <ellipse cx="466" cy="290" rx="54" ry="42"/>
    <ellipse cx="662" cy="336" rx="70" ry="56"/>
    <ellipse cx="318" cy="520" rx="88" ry="74"/>
    <ellipse cx="520" cy="496" rx="82" ry="64"/>
    <ellipse cx="722" cy="532" rx="72" ry="58"/>
    <ellipse cx="326" cy="716" rx="62" ry="50"/>
    <ellipse cx="506" cy="716" rx="96" ry="80"/>
    <ellipse cx="710" cy="712" rx="76" ry="60"/>
  </g>

  <g fill="#6D7074" opacity="0.55">
    <ellipse cx="232" cy="462" rx="34" ry="28"/>
    <ellipse cx="418" cy="434" rx="30" ry="24"/>
    <ellipse cx="602" cy="430" rx="36" ry="30"/>
    <ellipse cx="768" cy="454" rx="30" ry="24"/>
    <ellipse cx="404" cy="620" rx="40" ry="32"/>
    <ellipse cx="604" cy="622" rx="42" ry="34"/>
    <ellipse cx="278" cy="790" rx="32" ry="26"/>
    <ellipse cx="648" cy="796" rx="36" ry="28"/>
  </g>

  <g filter="url(#cloudBlur)" opacity="0.28">
    <ellipse cx="360" cy="372" rx="152" ry="48" fill="#FFFFFF"/>
    <ellipse cx="560" cy="356" rx="180" ry="54" fill="#FFFFFF"/>
    <ellipse cx="522" cy="664" rx="220" ry="66" fill="#FFFFFF"/>
  </g>
</svg>
